<svg width="33" height="37" viewBox="0 0 33 37" fill="none" xmlns="http://www.w3.org/2000/svg">
<path d="M7.71598 9.51715C7.71598 9.51715 5.95034 10.9137 5.65876 13.8556C5.36719 16.7975 5.38879 17.9285 5.38879 17.9285L6.05293 24.8424C6.05293 24.8424 6.3985 27.4232 7.72138 27.7365C9.04426 28.0498 12.6241 26.8922 12.6241 26.8922C12.6241 26.8922 14.7083 25.8779 15.4913 25.3735C16.2742 24.869 21.8627 20.796 21.8627 20.796C21.8627 20.796 23.6499 19.9783 23.38 18.8684C23.11 17.7586 20.3184 14.7265 20.3184 14.7265C20.3184 14.7265 17.5755 12.6555 16.4956 12.2201C15.4103 11.7846 10.7343 8.52945 7.71598 9.51715Z" fill="#FC573B"/>
<path d="M11.5928 33.705C13.9199 32.4943 16.7007 30.6676 16.7007 28.8143C16.7007 28.2886 16.1877 26.9716 15.907 26.2548C18.3152 24.9803 22.435 22.3358 23.882 20.0418C24.395 19.2294 24.3464 18.1832 23.9738 17.4345C23.3853 16.2556 21.9976 14.9068 20.2644 13.6218L19.2007 14.9971C20.7341 16.1335 21.9328 17.2805 22.3918 18.1992C22.489 18.3903 22.5754 18.8258 22.3864 19.1232C21.7006 20.2117 20.0808 21.5818 18.1424 22.8669C16.9761 21.3003 15.8908 19.532 15.8908 18.624C15.8908 18.0292 16.7385 16.6433 17.651 15.1883C18.3259 14.1103 19.6758 12.4641 19.8216 12.2889C19.9944 12.0765 20.1456 11.9119 20.3184 11.7791C20.4696 11.657 20.7395 11.5295 21.3335 11.6411C24.2168 12.1668 29.7675 16.0432 30.9122 18.3319C30.9284 18.3638 30.9824 18.5125 30.9824 18.6771C30.9824 18.7886 30.9608 18.8736 30.9122 18.9532C29.4813 21.226 23.8497 25.2458 21.0581 25.5804C20.3238 25.6706 20.2428 25.3892 19.9728 25.0971L18.4825 26.0424C18.8011 26.4035 19.0387 26.6583 19.1521 26.7645C19.6434 27.2318 20.3562 27.4177 21.2741 27.3062C24.584 26.9079 30.7394 22.5323 32.4187 19.8666C32.6401 19.5108 32.7535 19.1125 32.7535 18.6771C32.7535 18.1142 32.5591 17.6841 32.4997 17.5619C31.1174 14.8378 25.0375 10.5578 21.6467 9.94179C20.5829 9.75062 19.773 9.90462 19.2277 10.3985C18.9523 10.6481 18.4285 11.2375 17.8238 11.9968C17.435 11.7579 17.0355 11.5295 16.6359 11.3118C14.7569 10.271 12.0787 9.02312 9.9513 8.64079C8.47184 8.36997 7.43513 8.53458 6.78179 9.13464C5.72888 10.0958 5.10254 12.2093 4.77857 14.5511L6.53341 14.7528C6.85198 12.4695 7.41893 10.9242 7.98588 10.4091C8.10467 10.2976 8.59063 10.1648 9.63273 10.3507C10.8044 10.5631 12.2191 11.0676 13.677 11.7473C12.8886 13.4943 11.8897 15.2573 11.1068 15.7034C10.2321 16.1972 5.92867 15.8786 4.94056 15.783C4.21162 15.7087 3.3153 15.5759 2.69976 15.3051C2.41898 15.183 1.76564 13.9776 1.76564 10.8764C1.76564 7.72743 2.44058 4.36607 3.3315 3.04914C3.3747 2.98541 3.60688 2.73052 3.87685 2.73583C5.41031 2.78362 8.24506 3.72884 10.7666 5.03515C13.8012 6.61229 14.9297 7.92922 14.9297 8.39121C14.9297 8.74699 14.7353 9.05499 14.7137 9.12402L16.3011 9.88869C16.4793 9.38422 16.5981 9.00719 16.6413 8.84789C17.1975 6.69194 13.596 4.54131 11.5928 3.5005C8.77421 2.03488 5.76668 1.05781 3.93625 0.999393C2.96973 0.972842 2.2192 1.56759 1.86823 2.08268C0.583147 3.9678 0 7.96108 0 10.8711C0 13.3509 0.377966 16.4149 2.176 16.9619C2.56477 17.0787 3.44489 17.2486 4.53019 17.392C4.4168 20.1799 4.61658 26.053 6.6846 28.0337C7.25695 28.586 8.16946 28.7877 9.38435 28.6444C10.4859 28.5116 11.8357 28.0974 13.2666 27.5027L12.6079 25.8777C11.312 26.4247 10.1079 26.8123 9.16837 26.9239C8.43404 27.0141 8.03448 26.9079 7.91569 26.7964C7.17595 26.0848 6.60361 23.9926 6.37683 21.3534C8.38005 21.1835 10.4967 21.1676 11.1014 21.5127C11.555 21.7729 12.0787 22.4686 12.5971 23.3554C12.975 23.9979 14.3789 26.6265 14.8271 28.4479C14.9081 28.7824 14.8433 29.1435 14.6489 29.3878C14.1521 30.0303 12.9534 31.034 10.7612 32.1757C8.23966 33.482 5.41031 34.4272 3.87145 34.475C3.60148 34.4856 3.3693 34.2254 3.3261 34.1617C2.43518 32.8501 1.76024 29.4834 1.76024 26.3344C1.76024 23.2279 2.40278 21.9907 2.69436 21.9057C2.90494 21.842 3.18031 21.7783 3.51508 21.7145L3.40709 19.9834C2.85094 20.079 2.41898 20.1693 2.176 20.2436C0.377966 20.7852 0 23.8546 0 26.3291C0 29.2444 0.583147 33.2377 1.86823 35.1175C2.2192 35.6326 2.97513 36.2273 3.93625 36.2008C5.76668 36.1477 8.77421 35.1653 11.5928 33.705ZM11.9869 19.9993C10.9556 19.4152 8.50423 19.4205 6.27963 19.617C6.27424 19.3409 6.26884 19.0594 6.26884 18.7727C6.26884 18.3638 6.27423 17.9708 6.29043 17.5885C8.50963 17.7797 10.9556 17.7903 11.9869 17.2062C13.2072 16.5158 14.3789 14.4449 15.2428 12.5279C15.7558 12.804 16.2687 13.0907 16.7655 13.3934C15.4372 15.2308 14.1089 17.4239 14.1089 18.6399C14.1089 20.0418 15.3778 22.1075 16.6467 23.8121C16.1715 24.0935 15.691 24.3643 15.2104 24.6245C14.3519 22.7182 13.191 20.6844 11.9869 19.9993Z" fill="#261362"/>
</svg>
