<svg width="161" height="52" viewBox="0 0 161 52" fill="none" xmlns="http://www.w3.org/2000/svg">
<g clip-path="url(#clip0)">
<path d="M11.3963 12.5804C11.3963 12.5804 8.78843 14.6432 8.35778 18.9883C7.92713 23.3334 7.95903 25.0039 7.95903 25.0039L8.93996 35.2157C8.93996 35.2157 9.45036 39.0275 11.4042 39.4902C13.3581 39.953 18.6456 38.2432 18.6456 38.2432C18.6456 38.2432 21.7239 36.7451 22.8803 36C24.0367 35.2549 32.2909 29.2392 32.2909 29.2392C32.2909 29.2392 34.9306 28.0314 34.5318 26.3922C34.1331 24.753 30.01 20.2745 30.01 20.2745C30.01 20.2745 25.9587 17.2157 24.3637 16.5726C22.7607 15.9294 15.8543 11.1216 11.3963 12.5804Z" fill="#FC573B"/>
<path d="M17.1224 48.3056C20.5596 46.5173 24.6668 43.8193 24.6668 41.082C24.6668 40.3056 23.9092 38.3605 23.4944 37.3016C27.0513 35.4193 33.1363 31.5134 35.2736 28.1252C36.0312 26.9252 35.9594 25.3801 35.4092 24.2742C34.5399 22.533 32.4903 20.5409 29.9303 18.6428L28.3592 20.6742C30.6241 22.3526 32.3946 24.0467 33.0725 25.4036C33.216 25.686 33.3436 26.3291 33.0645 26.7683C32.0517 28.3762 29.6592 30.3997 26.7961 32.2977C25.0735 29.984 23.4705 27.3722 23.4705 26.0311C23.4705 25.1526 24.7226 23.1056 26.0704 20.9565C27.0673 19.3644 29.061 16.933 29.2764 16.6742C29.5316 16.3605 29.7549 16.1173 30.0101 15.9212C30.2334 15.7409 30.6321 15.5526 31.5094 15.7173C35.768 16.4938 43.9664 22.2193 45.6571 25.5997C45.681 25.6467 45.7607 25.8664 45.7607 26.1095C45.7607 26.2742 45.7288 26.3997 45.6571 26.5173C43.5437 29.8742 35.2257 35.8114 31.1026 36.3056C30.018 36.4389 29.8984 36.0232 29.4997 35.5918L27.2985 36.9879C27.7691 37.5213 28.12 37.8977 28.2874 38.0546C29.0132 38.7448 30.0659 39.0193 31.4216 38.8546C36.3103 38.2663 45.4019 31.8036 47.8821 27.8663C48.2091 27.3409 48.3766 26.7526 48.3766 26.1095C48.3766 25.2781 48.0895 24.6428 48.0017 24.4624C45.9601 20.4389 36.9802 14.1173 31.9719 13.2075C30.4008 12.9252 29.2046 13.1526 28.3991 13.882C27.9924 14.2507 27.2188 15.1212 26.3256 16.2428C25.7514 15.8899 25.1612 15.5526 24.5711 15.2311C21.7958 13.6938 17.8402 11.8507 14.698 11.286C12.5128 10.886 10.9816 11.1291 10.0166 12.0154C8.46151 13.435 7.53641 16.5565 7.05791 20.0154L9.64979 20.3134C10.1203 16.9409 10.9577 14.6585 11.7951 13.8977C11.9705 13.733 12.6883 13.5369 14.2275 13.8114C15.958 14.1252 18.0475 14.8703 20.2008 15.8742C19.0364 18.4546 17.561 21.0585 16.4046 21.7173C15.1127 22.4467 8.75659 21.9762 7.29716 21.835C6.22053 21.7252 4.89667 21.5291 3.98752 21.1291C3.57282 20.9487 2.60784 19.1683 2.60784 14.5879C2.60784 9.93694 3.60472 4.97223 4.9206 3.02713C4.9844 2.93301 5.32732 2.55654 5.72607 2.56439C7.99098 2.63497 12.1779 4.03105 15.9022 5.96046C20.3842 8.28988 22.051 10.235 22.051 10.9173C22.051 11.4428 21.7639 11.8977 21.732 11.9997L24.0766 13.1291C24.3398 12.384 24.5153 11.8271 24.5791 11.5918C25.4005 8.40752 20.0811 5.23105 17.1224 3.6938C12.9594 1.52909 8.51734 0.0859548 5.8138 -0.000319714C4.38627 -0.0395354 3.27774 0.838896 2.75936 1.59968C0.861304 4.38399 0 10.282 0 14.5801C0 18.2428 0.558253 22.7683 3.21394 23.5762C3.78814 23.7487 5.08807 23.9997 6.69105 24.2114C6.52358 28.3291 6.81865 37.0036 9.87309 39.9291C10.7184 40.7448 12.0662 41.0428 13.8606 40.8311C15.4875 40.635 17.4813 40.0232 19.5947 39.1448L18.6217 36.7448C16.7077 37.5526 14.9293 38.1252 13.5416 38.2899C12.457 38.4232 11.8669 38.2663 11.6914 38.1016C10.5988 37.0507 9.75347 33.9605 9.41852 30.0624C12.3773 29.8114 15.5035 29.7879 16.3967 30.2977C17.0666 30.682 17.8402 31.7095 18.6058 33.0193C19.164 33.9683 21.2375 37.8507 21.8994 40.5409C22.0191 41.035 21.9234 41.5683 21.6363 41.9291C20.9026 42.8781 19.1321 44.3605 15.8942 46.0467C12.1699 47.9762 7.99098 49.3722 5.7181 49.4428C5.31935 49.4585 4.97642 49.0742 4.91262 48.9801C3.59674 47.0428 2.59986 42.0703 2.59986 37.4193C2.59986 32.8311 3.54889 31.0036 3.97954 30.8781C4.29057 30.784 4.6973 30.6899 5.19175 30.5958L5.03225 28.0389C4.21082 28.1801 3.57282 28.3134 3.21394 28.4232C0.558253 29.2232 0 33.7565 0 37.4114C0 41.7173 0.861304 47.6154 2.75936 50.3918C3.27774 51.1526 4.39424 52.0311 5.8138 51.9918C8.51734 51.9134 12.9594 50.4624 17.1224 48.3056ZM17.7046 28.0624C16.1813 27.1997 12.5607 27.2075 9.27496 27.4977C9.26699 27.0899 9.25901 26.6742 9.25901 26.2507C9.25901 25.6467 9.26699 25.0663 9.29091 24.5016C12.5687 24.784 16.1813 24.7997 17.7046 23.9369C19.5069 22.9173 21.2375 19.8585 22.5135 17.0271C23.2711 17.435 24.0288 17.8585 24.7625 18.3056C22.8006 21.0193 20.8388 24.2585 20.8388 26.0546C20.8388 28.1252 22.7129 31.1762 24.587 33.6938C23.8852 34.1095 23.1754 34.5095 22.4657 34.8938C21.1976 32.0781 19.483 29.0742 17.7046 28.0624Z" fill="#261362"/>
<path d="M70.9059 32.5805C70.9059 31.953 70.8341 31.4197 70.6826 30.9726C70.539 30.5256 70.3556 30.1491 70.1403 29.8354C69.925 29.5217 69.6777 29.2707 69.3986 29.0903C69.1195 28.9099 68.8563 28.753 68.6171 28.6197C67.979 28.306 67.2772 28.0236 66.5196 27.7726C65.762 27.5217 64.9964 27.255 64.2228 26.9648C63.4492 26.6746 62.7076 26.353 61.9898 26.0001C61.272 25.6472 60.6261 25.1922 60.0519 24.6275C59.4777 24.0628 59.0231 23.3883 58.6961 22.5883C58.3612 21.7883 58.1937 20.8158 58.1937 19.6628C58.1937 17.2785 58.9114 15.4119 60.3469 14.0471C61.7824 12.6824 63.7523 12.0079 66.2564 12.0079C66.7589 12.0079 67.4048 12.0471 68.1705 12.1256C68.944 12.204 69.6937 12.3452 70.4274 12.5413C71.1611 12.7373 71.7831 13.004 72.3015 13.3491C72.8199 13.6864 73.0831 14.1334 73.0831 14.6824C73.0831 15.0746 72.9395 15.4197 72.6604 15.7256C72.3813 16.0315 71.9905 16.1805 71.4801 16.1805C71.1611 16.1805 70.858 16.1177 70.563 16.0001C70.2679 15.8824 69.9329 15.757 69.5422 15.6236C69.1594 15.4903 68.7128 15.3648 68.2263 15.2472C67.7318 15.1295 67.1576 15.0668 66.4877 15.0668C65.8497 15.0668 65.2277 15.1373 64.6295 15.2864C64.0314 15.4275 63.4971 15.6628 63.0345 15.9922C62.572 16.3217 62.1972 16.7609 61.918 17.3256C61.6389 17.8903 61.4953 18.604 61.4953 19.4668C61.4953 20.1177 61.5751 20.6746 61.7346 21.1138C61.8941 21.5609 62.0855 21.9295 62.3168 22.2354C62.5401 22.5334 62.7873 22.7766 63.0585 22.9648C63.3216 23.1452 63.5768 23.2942 63.8161 23.3962C64.4541 23.7099 65.1559 24.0001 65.9135 24.2589C66.6711 24.5177 67.4367 24.7922 68.2103 25.0668C68.9839 25.3413 69.7336 25.655 70.4673 26.0079C71.201 26.3609 71.8469 26.8236 72.4052 27.3805C72.9634 27.9452 73.41 28.6197 73.745 29.404C74.0799 30.1883 74.2474 31.1609 74.2474 32.3138C74.2474 33.6236 74.0241 34.7844 73.5855 35.7883C73.1469 36.8001 72.5328 37.6471 71.7512 38.3373C70.9617 39.0354 70.0366 39.5609 68.9759 39.9295C67.9073 40.2981 66.7509 40.4785 65.4988 40.4785C64.8608 40.4785 64.1112 40.4236 63.2658 40.3217C62.4125 40.2197 61.607 40.0471 60.8494 39.8119C60.0917 39.5766 59.4537 39.2785 58.9354 38.9099C58.417 38.5413 58.1538 38.102 58.1538 37.5766C58.1538 37.1844 58.2974 36.8315 58.5765 36.5177C58.8556 36.204 59.1985 36.0471 59.5973 36.0471C59.8605 36.0471 60.1795 36.1177 60.5543 36.2668C60.9291 36.4079 61.3518 36.5648 61.8303 36.7373C62.3088 36.9099 62.8511 37.0668 63.4652 37.2079C64.0793 37.3491 64.7731 37.4275 65.5387 37.4275C67.3251 37.4275 68.6569 37.0119 69.5501 36.1726C70.4593 35.3177 70.9059 34.1256 70.9059 32.5805Z" fill="#261362"/>
<path d="M78.3306 15.6942C78.3306 15.2785 78.4661 14.9255 78.7293 14.6354C78.9925 14.3452 79.3833 14.204 79.8857 14.204C80.3881 14.204 80.7789 14.3452 81.0421 14.6354C81.3053 14.9255 81.4408 15.2785 81.4408 15.6942V21.1138H85.5958C85.9946 21.1138 86.3375 21.255 86.6166 21.5295C86.8958 21.804 87.0393 22.1491 87.0393 22.5726C87.0393 22.9883 86.9037 23.3412 86.6166 23.6157C86.3295 23.8903 85.9946 24.0314 85.5958 24.0314H81.4408V31.851C81.4408 32.8706 81.4727 33.7334 81.5445 34.4236C81.6083 35.1216 81.7678 35.6863 82.0071 36.1334C82.2463 36.5805 82.5813 36.902 83.0039 37.0981C83.4266 37.2942 84.0008 37.3961 84.7186 37.3961C84.8541 37.3961 84.9817 37.3883 85.1014 37.3804C85.221 37.3648 85.3486 37.3648 85.4842 37.3648C85.7234 37.3648 85.9627 37.3804 86.2019 37.404C86.4412 37.4275 86.6645 37.4981 86.8639 37.6001C87.0632 37.702 87.2307 37.851 87.3663 38.0314C87.5019 38.2118 87.5657 38.4628 87.5657 38.7765C87.5657 39.1138 87.5019 39.3883 87.3663 39.5844C87.2307 39.7805 87.0632 39.9295 86.8479 40.0393C86.6326 40.1412 86.3854 40.2118 86.1062 40.2354C85.8271 40.2589 85.5559 40.2746 85.2848 40.2746C83.8732 40.2746 82.7248 40.102 81.8316 39.7648C80.9384 39.4275 80.2366 38.9177 79.7182 38.2354C79.1998 37.553 78.841 36.7138 78.6416 35.702C78.4422 34.6981 78.3385 33.5059 78.3385 32.1491V15.6942H78.3306Z" fill="#261362"/>
<path d="M101.977 21.5059C101.977 21.0903 102.104 20.7373 102.359 20.4471C102.615 20.1569 103.005 20.0157 103.54 20.0157C104.074 20.0157 104.465 20.1569 104.72 20.4471C104.975 20.7373 105.103 21.0903 105.103 21.5059V35.255C105.103 35.804 105.127 36.2275 105.167 36.5099C105.206 36.8001 105.27 37.0354 105.35 37.2158C105.43 37.3961 105.51 37.5373 105.589 37.6314C105.669 37.7256 105.749 37.851 105.829 38.0079C105.884 38.0863 105.94 38.1883 106.012 38.3216C106.076 38.455 106.116 38.6118 106.116 38.7922C106.116 39.1609 105.98 39.4824 105.693 39.7569C105.406 40.0314 105.063 40.1726 104.632 40.1726C104.257 40.1726 103.93 40.0707 103.651 39.8589C103.372 39.6471 103.125 39.3648 102.91 38.9961C102.032 39.4903 101.099 39.851 100.11 40.0785C99.1215 40.2981 98.1645 40.4158 97.2314 40.4158C95.1021 40.4158 93.5071 39.7334 92.4624 38.3765C91.4097 37.0118 90.8833 35.2236 90.8833 32.9961V21.5059C90.8833 21.0903 91.0189 20.7373 91.2821 20.4471C91.5452 20.1569 91.936 20.0157 92.4384 20.0157C92.9409 20.0157 93.3316 20.1569 93.5948 20.4471C93.858 20.7373 93.9936 21.0903 93.9936 21.5059V32.9726C93.9936 34.4628 94.3046 35.6158 94.9346 36.4314C95.5567 37.2471 96.4738 37.6471 97.6701 37.6471C98.4436 37.6471 99.2013 37.5373 99.9429 37.3099C100.685 37.0903 101.394 36.7687 102.056 36.3452C102.032 36.1334 102.008 35.9373 101.993 35.7569C101.977 35.5765 101.969 35.404 101.969 35.2471V21.5059H101.977Z" fill="#261362"/>
<path d="M110.358 25.5531C110.358 23.8511 110.901 22.4864 111.993 21.4511C113.086 20.4158 114.697 19.8982 116.826 19.8982C117.328 19.8982 117.895 19.9374 118.525 20.0158C119.155 20.0943 119.729 20.2198 120.263 20.3923C120.798 20.5649 121.244 20.7845 121.603 21.059C121.962 21.3335 122.145 21.6786 122.145 22.1021C122.145 22.4707 122.01 22.8002 121.747 23.0825C121.483 23.3727 121.133 23.5139 120.71 23.5139C120.494 23.5139 120.255 23.4511 119.992 23.3178C119.569 23.106 119.131 22.9413 118.692 22.808C118.254 22.6747 117.671 22.6119 116.954 22.6119C114.585 22.6119 113.397 23.5296 113.397 25.3649C113.397 25.9688 113.532 26.4551 113.819 26.8158C114.099 27.1845 114.585 27.5374 115.279 27.8747C115.973 28.2119 116.746 28.5178 117.592 28.7766C118.445 29.0354 119.25 29.3962 120.008 29.859C120.766 30.3139 121.404 30.91 121.922 31.6472C122.44 32.3845 122.704 33.3884 122.704 34.6747C122.704 36.4551 122.145 37.859 121.029 38.8786C119.912 39.8982 118.238 40.408 115.997 40.408C115.494 40.408 114.896 40.3766 114.218 40.306C113.54 40.2433 112.902 40.1256 112.304 39.9531C111.706 39.7805 111.196 39.5453 110.765 39.2472C110.334 38.9492 110.127 38.5727 110.127 38.1256C110.127 37.7884 110.255 37.4668 110.51 37.1609C110.765 36.8629 111.132 36.706 111.61 36.706C111.746 36.706 111.834 36.7139 111.873 36.7217C111.913 36.7374 111.961 36.7531 112.009 36.7845C112.567 36.9962 113.173 37.2002 113.827 37.3962C114.481 37.5923 115.207 37.6943 116.005 37.6943C117.121 37.6943 118.014 37.4668 118.684 37.0041C119.346 36.5492 119.681 35.8041 119.681 34.7845C119.681 34.0786 119.537 33.5453 119.242 33.1923C118.947 32.8394 118.604 32.557 118.206 32.3453C117.568 32.008 116.802 31.7021 115.909 31.4433C115.016 31.1845 114.162 30.8315 113.349 30.3845C112.535 29.9374 111.834 29.3492 111.251 28.6198C110.653 27.8825 110.358 26.8629 110.358 25.5531Z" fill="#261362"/>
<path d="M137.322 26.8079C137.322 24.0079 135.895 22.604 133.047 22.604C132.354 22.604 131.787 22.6824 131.349 22.8393C130.91 22.9961 130.464 23.1922 130.009 23.4275C129.953 23.451 129.826 23.5138 129.61 23.6079C129.395 23.702 129.188 23.7491 128.972 23.7491C128.597 23.7491 128.326 23.6079 128.151 23.3177C127.975 23.0275 127.88 22.7452 127.848 22.455C127.792 22.0079 127.928 21.6236 128.247 21.2942C128.566 20.9648 128.996 20.6981 129.546 20.4863C130.089 20.2746 130.703 20.1256 131.381 20.0314C132.059 19.9373 132.744 19.8903 133.438 19.8903C135.942 19.8903 137.729 20.5569 138.813 21.8903C139.89 23.2236 140.432 25.2001 140.432 27.8197V36.4706C140.432 37.255 140.672 37.6471 141.15 37.6471C141.206 37.6471 141.254 37.6393 141.286 37.6314C141.326 37.6157 141.389 37.6157 141.469 37.6157C141.844 37.6157 142.131 37.7569 142.33 38.0314C142.53 38.3059 142.633 38.6118 142.633 38.9569C142.633 39.451 142.45 39.804 142.075 40.0001C141.7 40.1961 141.286 40.2981 140.839 40.2981C140.177 40.2981 139.579 40.1177 139.061 39.7648C138.542 39.4118 138.136 38.9334 137.84 38.3295C136.293 39.7177 134.475 40.4079 132.37 40.4079C130.296 40.4079 128.757 39.8667 127.76 38.7765C126.763 37.6942 126.261 36.2589 126.261 34.4785V34.3216C126.261 30.4471 128.605 28.5099 133.287 28.5099C134.698 28.5099 136.046 28.6903 137.322 29.0589V26.8079ZM133.247 31.0903C132.417 31.0903 131.756 31.1765 131.253 31.3491C130.751 31.5216 130.352 31.7569 130.073 32.055C129.794 32.353 129.602 32.7059 129.491 33.0981C129.387 33.4903 129.331 33.9138 129.331 34.353V34.5099C129.331 35.4275 129.586 36.1805 130.089 36.7687C130.591 37.3569 131.516 37.655 132.848 37.655C133.701 37.655 134.483 37.5138 135.201 37.2393C135.919 36.9648 136.628 36.5255 137.314 35.9216V31.6785C136.652 31.4667 135.958 31.3177 135.241 31.2236C134.523 31.1373 133.861 31.0903 133.247 31.0903Z" fill="#261362"/>
<path d="M149.898 38.8629C149.898 39.2786 149.771 39.6315 149.516 39.9217C149.26 40.2119 148.87 40.3531 148.335 40.3531C147.801 40.3531 147.41 40.2119 147.155 39.9217C146.9 39.6315 146.772 39.2786 146.772 38.8629V25.5138C146.772 24.9648 146.756 24.5491 146.716 24.2589C146.677 23.9688 146.621 23.7335 146.557 23.5531C146.493 23.3727 146.413 23.2315 146.318 23.1374C146.222 23.0433 146.134 22.9178 146.055 22.7609C145.999 22.6825 145.943 22.5805 145.879 22.4629C145.815 22.3452 145.775 22.1805 145.775 21.9688C145.775 21.5766 145.911 21.2472 146.198 20.9884C146.477 20.7295 146.828 20.5962 147.259 20.5962C147.634 20.5962 147.953 20.6982 148.216 20.9099C148.479 21.1217 148.718 21.3962 148.934 21.7335C149.811 21.1295 150.744 20.6903 151.725 20.4001C152.706 20.1099 153.679 19.9688 154.644 19.9688C156.773 19.9688 158.368 20.6511 159.413 22.008C160.465 23.3727 160.992 25.1609 160.992 27.3884V38.855C160.992 39.2707 160.856 39.6237 160.593 39.9138C160.33 40.204 159.939 40.3452 159.437 40.3452C158.934 40.3452 158.543 40.204 158.28 39.9138C158.017 39.6237 157.881 39.2707 157.881 38.855V27.3962C157.881 25.906 157.57 24.7531 156.94 23.9374C156.31 23.1295 155.401 22.7217 154.205 22.7217C153.431 22.7217 152.674 22.8629 151.932 23.1531C151.19 23.4433 150.465 23.8511 149.779 24.3688C149.859 24.8158 149.898 25.1923 149.898 25.506V38.8629Z" fill="#261362"/>
</g>
<defs>
<clipPath id="clip0">
<rect width="161" height="52" fill="white"/>
</clipPath>
</defs>
</svg>
