<svg width="64" height="10" viewBox="0 0 64 10" fill="none" xmlns="http://www.w3.org/2000/svg">
<path fill-rule="evenodd" clip-rule="evenodd" d="M0 2.68958H3.0169V10H6.26056V2.68958H9.27746V0H0V2.69V2.68958ZM14.3538 6.69292L16.4946 10H19.4615L17.0613 6.42375C17.6848 6.20575 18.2196 5.7948 18.5854 5.25259C18.9512 4.71039 19.1282 4.06617 19.0898 3.41667C19.0898 1.23292 17.564 0.0145833 15.3757 0.0145833H10.7694V10H13.4294V6.69292H14.3538ZM13.4294 2.19875H15.0998C16.0568 2.19875 16.4785 2.67333 16.4785 3.40125C16.4785 4.12917 16.0407 4.60375 15.0998 4.60375H13.4294V2.19875ZM21.0522 0V9.98458H28.01V8.14875H23.1608V5.77375H27.5721V4.00292H23.1608V1.81917H28.01V0H21.0522ZM35.2763 7.84875L38.4064 3.00667V10H40.1093V0.0149997H38.5526L35.2598 5.22333L31.9352 0.0149997H30.3131V10H32.0161V3.00583L35.1949 7.84792H35.2763V7.84875ZM48.2034 4.82625C48.6626 4.67902 49.0595 4.38677 49.3322 3.99495C49.605 3.60312 49.7385 3.13367 49.7119 2.65958C49.7119 0.934583 48.4467 0.00124931 46.3212 0.00124931H42.9478V9.98458H46.6458C48.754 9.98458 50.0514 8.98792 50.0514 7.16792C50.0591 6.62927 49.8803 6.10406 49.5444 5.67848C49.2084 5.2529 48.7353 4.95223 48.2026 4.82583L48.2034 4.82625ZM44.246 4.35167V1.12292H46.3381C47.7008 1.12292 48.4628 1.62917 48.4628 2.72125C48.4628 3.81333 47.7169 4.35125 46.3381 4.35125H44.246V4.35167ZM44.246 5.42792H46.6619C48.0403 5.42792 48.7867 6.09458 48.7867 7.15292C48.7867 8.1975 48.0568 8.8775 46.6619 8.8775H44.246V5.42708V5.42792ZM53.3764 0H52.533V9.98458H53.3764V0ZM55.7118 0.490416H59.5882V10H60.1074V0.489999H64V0H55.7283V0.490416H55.7118Z" fill="#261362"/>
</svg>
