<svg width="24" height="40" viewBox="0 0 24 40" fill="none" xmlns="http://www.w3.org/2000/svg">
<path d="M15.9351 19.9915L0.652313 34.9561C0.231498 35.3672 3.45773e-06 35.9168 3.50896e-06 36.5028C3.56022e-06 37.0891 0.231499 37.6384 0.652313 38.0501L1.99148 39.3607C2.41162 39.773 2.97326 40 3.57177 40C4.17027 40 4.73125 39.773 5.15173 39.3607L23.3483 21.5441C23.7705 21.1311 24.0017 20.5792 24 19.9925C24.0016 19.4033 23.7708 18.852 23.3483 18.4387L5.16867 0.639349C4.74818 0.226991 4.18721 -2.08261e-06 3.58837 -2.03026e-06C2.98987 -1.97793e-06 2.42889 0.226992 2.00808 0.639349L0.669249 1.94992C-0.201938 2.80293 -0.201938 4.19155 0.669249 5.04423L15.9351 19.9915Z" fill="#261362"/>
</svg>
