<svg width="24" height="40" viewBox="0 0 24 40" fill="none" xmlns="http://www.w3.org/2000/svg">
<path d="M8.06488 20.0085L23.3477 5.04391C23.7685 4.63285 24 4.08326 24 3.49724C24 2.9109 23.7685 2.36163 23.3477 1.94992L22.0085 0.639353C21.5884 0.226996 21.0267 3.67643e-06 20.4282 3.57179e-06C19.8297 3.46714e-06 19.2688 0.226995 18.8483 0.639353L0.651652 18.4559C0.22951 18.8689 -0.00165517 19.4208 5.40008e-06 20.0075C-0.00165537 20.5967 0.229178 21.148 0.651652 21.5613L18.8313 39.3607C19.2518 39.773 19.8128 40 20.4116 40C21.0101 40 21.5711 39.773 21.9919 39.3607L23.3307 38.0501C24.2019 37.1971 24.2019 35.8085 23.3307 34.9558L8.06488 20.0085Z" fill="#261362"/>
</svg>
