<svg style="position: absolute; width: 0; height: 0; overflow: hidden;" version="1.1" xmlns="http://www.w3.org/2000/svg" xmlns:xlink="http://www.w3.org/1999/xlink">
  <symbol id="mic-on" viewBox="0 0 24 24">
    <path d="M12 2C10.0681 2 8.49634 3.57176 8.49634 5.50363V12.3895C8.49634 14.3212 10.0681 15.8929 12 15.8929C13.9318 15.8929 15.5036 14.3321 15.5036 12.4136V5.50363C15.5036 3.57176 13.9318 2 12 2ZM14.0435 12.4134C14.0435 13.5268 13.1267 14.4329 12 14.4329C10.8732 14.4329 9.95618 13.5163 9.95618 12.3893V5.50363C9.95618 4.37664 10.873 3.45984 12 3.45984C13.127 3.45984 14.0438 4.37664 14.0435 5.50363V12.4134Z"/>
    <path d="M12.7299 17.9854H11.27V21.27H12.7299V17.9854Z"/>
    <path d="M13.9221 20.5403H10.0778C9.67466 20.5403 9.3479 20.867 9.3479 21.2702C9.3479 21.6734 9.67466 22.0001 10.0778 22.0001H13.9221C14.3253 22.0001 14.652 21.6734 14.652 21.2702C14.652 20.867 14.3253 20.5403 13.9221 20.5403Z"/>
    <path d="M17.5232 11.1726C17.1201 11.1726 16.7933 11.4994 16.7933 11.9025V12.4865C16.7933 15.1293 14.643 17.2797 12.0001 17.2797C9.35707 17.2797 7.20691 15.1293 7.20691 12.4865V11.9025C7.20691 11.4994 6.88016 11.1726 6.47699 11.1726C6.07383 11.1726 5.74707 11.4994 5.74707 11.9025V12.4865C5.74707 15.9344 8.55219 18.7395 12.0001 18.7395C15.448 18.7395 18.2532 15.9344 18.2532 12.4865V11.9025C18.2532 11.4994 17.9264 11.1726 17.5232 11.1726Z"/>
  </symbol>

  <symbol id="mic-off" viewBox="0 0 24 24">
    <path d="M12 2C10.0681 2 8.49634 3.57176 8.49634 5.50363V12.3895C8.49634 14.3212 10.0681 15.8929 12 15.8929C13.9318 15.8929 15.5036 14.3321 15.5036 12.4136V5.50363C15.5036 3.57176 13.9318 2 12 2ZM14.0435 12.4134C14.0435 13.5268 13.1267 14.4329 12 14.4329C10.8732 14.4329 9.95618 13.5163 9.95618 12.3893V5.50363C9.95618 4.37664 10.873 3.45984 12 3.45984C13.127 3.45984 14.0438 4.37664 14.0435 5.50363V12.4134Z"/>
    <path d="M21.2441 2.47438C20.9795 2.20841 20.5511 2.20841 20.2865 2.47438L2.75604 20.0869C2.49147 20.3526 2.49147 20.7838 2.75604 21.0495C2.88812 21.1825 3.06147 21.249 3.23483 21.249C3.40796 21.249 3.58155 21.1825 3.71362 21.0495L21.2441 3.43702C21.5087 3.17128 21.5087 2.74011 21.2441 2.47438Z"/>
    <path d="M12.7299 17.9854H11.27V21.27H12.7299V17.9854Z"/>
    <path d="M13.9221 20.5403H10.0778C9.67466 20.5403 9.3479 20.867 9.3479 21.2702C9.3479 21.6734 9.67466 22.0001 10.0778 22.0001H13.9221C14.3253 22.0001 14.652 21.6734 14.652 21.2702C14.652 20.867 14.3253 20.5403 13.9221 20.5403Z"/>
    <path d="M17.5232 11.1726C17.1201 11.1726 16.7933 11.4994 16.7933 11.9025V12.4865C16.7933 15.1293 14.643 17.2797 12.0001 17.2797C9.35707 17.2797 7.20691 15.1293 7.20691 12.4865V11.9025C7.20691 11.4994 6.88016 11.1726 6.47699 11.1726C6.07383 11.1726 5.74707 11.4994 5.74707 11.9025V12.4865C5.74707 15.9344 8.55219 18.7395 12.0001 18.7395C15.448 18.7395 18.2532 15.9344 18.2532 12.4865V11.9025C18.2532 11.4994 17.9264 11.1726 17.5232 11.1726Z"/>
  </symbol>

  <symbol id="cam-on" viewBox="0 0 24 24">
    <rect x="3" y="6" width="13" height="11" fill="white"/>
    <path d="M16 10L22 7V16L16 13V10Z" fill="white"/>
    <path d="M22.6445 6.36178C22.4234 6.22507 22.1472 6.21259 21.9147 6.32878L17 8.78651V7C17 5.75736 15.9926 4.75 14.75 4.75H4.25C3.00736 4.75 2 5.75736 2 7V16C2 17.2426 3.00736 18.25 4.25 18.25H14.75C15.9926 18.25 17 17.2426 17 16V14.2135L21.9147 16.675C22.2853 16.8601 22.7357 16.7099 22.9209 16.3393C22.9735 16.234 23.0007 16.1177 23 16V7C23.0001 6.74002 22.8656 6.49854 22.6445 6.36178ZM15.5 16C15.5 16.4142 15.1642 16.75 14.75 16.75H4.25C3.83577 16.75 3.49998 16.4142 3.49998 16V7C3.49998 6.58577 3.83577 6.24998 4.25 6.24998H14.75C15.1642 6.24998 15.5 6.58577 15.5 7V16ZM21.5 14.7865L17 12.5365V10.4635L21.5 8.21355V14.7865Z"/>
  </symbol>

  <symbol id="cam-off" viewBox="0 0 24 24">
    <path d="M22.6445 6.36178C22.4234 6.22507 22.1472 6.21259 21.9147 6.32878L17 8.78651V7C17 5.75736 15.9926 4.75 14.75 4.75H4.25C3.00736 4.75 2 5.75736 2 7V16C2 17.2426 3.00736 18.25 4.25 18.25H14.75C15.9926 18.25 17 17.2426 17 16V14.2135L21.9147 16.675C22.2853 16.8601 22.7357 16.7099 22.9209 16.3393C22.9735 16.234 23.0007 16.1177 23 16V7C23.0001 6.74002 22.8656 6.49854 22.6445 6.36178ZM15.5 16C15.5 16.4142 15.1642 16.75 14.75 16.75H4.25C3.83577 16.75 3.49998 16.4142 3.49998 16V7C3.49998 6.58577 3.83577 6.24998 4.25 6.24998H14.75C15.1642 6.24998 15.5 6.58577 15.5 7V16ZM21.5 14.7865L17 12.5365V10.4635L21.5 8.21355V14.7865V14.7865Z"/>
    <path d="M21.2441 2.47438C20.9795 2.20841 20.5511 2.20841 20.2865 2.47438L2.75604 20.0869C2.49147 20.3526 2.49147 20.7838 2.75604 21.0495C2.88812 21.1825 3.06147 21.249 3.23483 21.249C3.40796 21.249 3.58155 21.1825 3.71362 21.0495L21.2441 3.43702C21.5087 3.17128 21.5087 2.74011 21.2441 2.47438Z"/>
  </symbol>

  <symbol id="settings" viewBox="0 0 22 22">
    <path d="M11.6903 22H10.3096C9.19291 22 8.28433 21.0915 8.28433 19.9748V19.5076C7.80957 19.356 7.3483 19.1645 6.90516 18.9352L6.57413 19.2662C5.77238 20.0689 4.48809 20.0454 3.70962 19.2659L2.73376 18.2901C1.95392 17.5111 1.93149 16.2272 2.73402 15.4256L3.06479 15.0948C2.83546 14.6517 2.64404 14.1905 2.49232 13.7156H2.02525C0.908574 13.7156 0 12.8071 0 11.6904V10.3096C0 9.19291 0.908574 8.28438 2.02529 8.28438H2.49236C2.64408 7.80957 2.83551 7.34834 3.06483 6.90521L2.7338 6.57422C1.93175 5.77302 1.95388 4.48903 2.73406 3.70971L3.71001 2.7338C4.49028 1.95246 5.77427 1.93295 6.57448 2.73406L6.90521 3.06479C7.34834 2.83551 7.80961 2.64404 8.28438 2.49232V2.02525C8.28438 0.908531 9.19291 0 10.3097 0H11.6904C12.8071 0 13.7156 0.908531 13.7156 2.02525V2.49236C14.1904 2.64404 14.6517 2.83551 15.0948 3.06483L15.4258 2.7338C16.2276 1.93106 17.5119 1.95461 18.2903 2.7341L19.2662 3.70992C20.046 4.4889 20.0685 5.77277 19.2659 6.57443L18.9352 6.90521C19.1645 7.34834 19.3559 7.80953 19.5076 8.28438H19.9747C21.0914 8.28438 22 9.19291 22 10.3096V11.6904C22 12.8071 21.0914 13.7156 19.9747 13.7156H19.5076C19.3559 14.1904 19.1645 14.6517 18.9352 15.0948L19.2662 15.4258C20.0683 16.227 20.0461 17.511 19.2659 18.2903L18.29 19.2662C17.5097 20.0476 16.2257 20.0671 15.4255 19.266L15.0948 18.9353C14.6517 19.1645 14.1904 19.356 13.7156 19.5077V19.9748C13.7156 21.0915 12.8071 22 11.6903 22ZM7.12065 17.5815C7.73627 17.9456 8.39884 18.2206 9.08995 18.399C9.37458 18.4724 9.57344 18.7291 9.57344 19.0231V19.9748C9.57344 20.3807 9.90374 20.7109 10.3097 20.7109H11.6904C12.0963 20.7109 12.4266 20.3807 12.4266 19.9748V19.0231C12.4266 18.7291 12.6255 18.4724 12.9101 18.399C13.6012 18.2206 14.2638 17.9456 14.8794 17.5815C15.1327 17.4317 15.4552 17.4725 15.6633 17.6806L16.3374 18.3547C16.628 18.6457 17.0947 18.6389 17.3782 18.355L18.3548 17.3785C18.6376 17.096 18.6471 16.6292 18.355 16.3376L17.6807 15.6632C17.4726 15.4551 17.4319 15.1326 17.5816 14.8793C17.9457 14.2638 18.2207 13.6012 18.399 12.91C18.4725 12.6254 18.7292 12.4266 19.0231 12.4266H19.9748C20.3807 12.4266 20.711 12.0963 20.711 11.6904V10.3097C20.711 9.90374 20.3807 9.57348 19.9748 9.57348H19.0231C18.7292 9.57348 18.4725 9.37462 18.399 9.09004C18.2207 8.39889 17.9456 7.73631 17.5816 7.12074C17.4319 6.86748 17.4726 6.54496 17.6807 6.3369L18.3548 5.66277C18.6462 5.3717 18.6386 4.90506 18.355 4.62185L17.3786 3.64538C17.0955 3.36196 16.6287 3.35367 16.3377 3.64512L15.6633 4.31952C15.4553 4.52762 15.1326 4.56835 14.8794 4.41856C14.2638 4.05449 13.6012 3.77945 12.9101 3.60108C12.6255 3.52765 12.4266 3.27095 12.4266 2.977V2.02525C12.4266 1.61932 12.0963 1.28906 11.6904 1.28906H10.3097C9.90378 1.28906 9.57348 1.61932 9.57348 2.02525V2.97692C9.57348 3.27087 9.37462 3.52756 9.09 3.601C8.39889 3.77936 7.73631 4.0544 7.1207 4.41848C6.86735 4.56822 6.54487 4.52749 6.33682 4.31943L5.66272 3.6453C5.37208 3.35431 4.90531 3.36106 4.62185 3.645L3.6453 4.6215C3.36248 4.90398 3.35302 5.37075 3.64504 5.66242L4.31943 6.33682C4.52749 6.54487 4.56822 6.86739 4.41848 7.12065C4.0544 7.73622 3.7794 8.3988 3.60104 9.08995C3.52756 9.37458 3.27087 9.57339 2.97696 9.57339H2.02529C1.61936 9.57344 1.28906 9.9037 1.28906 10.3096V11.6904C1.28906 12.0963 1.61936 12.4266 2.02529 12.4266H2.97692C3.27087 12.4266 3.52752 12.6254 3.601 12.91C3.77936 13.6012 4.0544 14.2637 4.41843 14.8793C4.56818 15.1326 4.52745 15.4551 4.31939 15.6631L3.64525 16.3373C3.35384 16.6283 3.36145 17.095 3.645 17.3782L4.62146 18.3547C4.9045 18.6381 5.37131 18.6464 5.66238 18.3549L6.33673 17.6805C6.49004 17.5273 6.809 17.3972 7.12065 17.5815Z"/>
    <path d="M11.0001 15.7867C8.36066 15.7867 6.21338 13.6394 6.21338 11C6.21338 8.36058 8.36066 6.21326 11.0001 6.21326C13.6395 6.21326 15.7868 8.36058 15.7868 11C15.7868 13.6394 13.6395 15.7867 11.0001 15.7867ZM11.0001 7.50232C9.07144 7.50232 7.50244 9.07137 7.50244 11C7.50244 12.9286 9.07149 14.4976 11.0001 14.4976C12.9287 14.4976 14.4978 12.9286 14.4978 11C14.4978 9.07137 12.9287 7.50232 11.0001 7.50232Z"/>
  </symbol>

  <symbol id="users" viewBox="0 0 16 16">
    <path d="M8 6.45728C9.50152 6.45728 10.7188 5.24005 10.7188 3.73853C10.7188 2.237 9.50152 1.01978 8 1.01978C6.49848 1.01978 5.28125 2.237 5.28125 3.73853C5.28125 5.24005 6.49848 6.45728 8 6.45728Z"/>
    <path d="M13.5 6.45727C14.4492 6.45727 15.2188 5.68776 15.2188 4.73853C15.2188 3.78929 14.4492 3.01978 13.5 3.01978C12.5508 3.01978 11.7812 3.78929 11.7812 4.73853C11.7812 5.68776 12.5508 6.45727 13.5 6.45727Z"/>
    <path d="M2.5 6.45727C3.44924 6.45727 4.21875 5.68776 4.21875 4.73853C4.21875 3.78929 3.44924 3.01978 2.5 3.01978C1.55076 3.01978 0.78125 3.78929 0.78125 4.73853C0.78125 5.68776 1.55076 6.45727 2.5 6.45727Z"/>
    <path d="M4.19344 8.00075C3.51688 7.44644 2.90416 7.51982 2.12188 7.51982C0.951875 7.51982 0 8.46607 0 9.62888V13.0417C0 13.5467 0.412188 13.9573 0.919062 13.9573C3.10738 13.9573 2.84375 13.9969 2.84375 13.8629C2.84375 11.4446 2.55731 9.67116 4.19344 8.00075Z"/>
    <path d="M8.74403 7.53224C7.37766 7.41827 6.19 7.53355 5.16559 8.37911C3.45131 9.75224 3.78122 11.6011 3.78122 13.8629C3.78122 14.4613 4.26809 14.9572 4.87559 14.9572C11.4719 14.9572 11.7344 15.17 12.1256 14.3038C12.2539 14.0109 12.2187 14.104 12.2187 11.3016C12.2187 9.0758 10.2914 7.53224 8.74403 7.53224Z"/>
    <path d="M13.8781 7.51974C13.0915 7.51974 12.4822 7.44711 11.8065 8.00068C13.4304 9.65867 13.1562 11.3111 13.1562 13.8629C13.1562 13.9977 12.9374 13.9572 15.0481 13.9572C15.5731 13.9572 16 13.5319 16 13.0091V9.6288C16 8.46599 15.0481 7.51974 13.8781 7.51974Z"/>
  </symbol>

  <symbol id="layout-leader" viewBox="0 0 35 21">
    <path fill-rule="evenodd" clip-rule="evenodd" d="M2.34326 1.74219V10.2792H32.7877V1.74219H2.34326ZM1.84326 0.242188C1.29098 0.242188 0.843262 0.689904 0.843262 1.24219V10.7792C0.843262 11.3315 1.29098 11.7792 1.84326 11.7792H33.2877C33.84 11.7792 34.2877 11.3315 34.2877 10.7792V1.24219C34.2877 0.689903 33.84 0.242188 33.2877 0.242188H1.84326Z"/>
    <path fill-rule="evenodd" clip-rule="evenodd" d="M2.34326 14.8721V18.6498H6.50992V14.8721H2.34326ZM1.84326 13.3721C1.29098 13.3721 0.843262 13.8198 0.843262 14.3721V19.1498C0.843262 19.7021 1.29098 20.1498 1.84326 20.1498H7.00992C7.56221 20.1498 8.00992 19.7021 8.00992 19.1498V14.3721C8.00992 13.8198 7.56221 13.3721 7.00992 13.3721H1.84326Z"/>
    <path fill-rule="evenodd" clip-rule="evenodd" d="M11.1025 14.8721V18.6498H15.2692V14.8721H11.1025ZM10.6025 13.3721C10.0503 13.3721 9.60254 13.8198 9.60254 14.3721V19.1498C9.60254 19.7021 10.0503 20.1498 10.6025 20.1498H15.7692C16.3215 20.1498 16.7692 19.7021 16.7692 19.1498V14.3721C16.7692 13.8198 16.3215 13.3721 15.7692 13.3721H10.6025Z"/>
    <path fill-rule="evenodd" clip-rule="evenodd" d="M19.8618 14.8721V18.6498H24.0285V14.8721H19.8618ZM19.3618 13.3721C18.8095 13.3721 18.3618 13.8198 18.3618 14.3721V19.1498C18.3618 19.7021 18.8095 20.1498 19.3618 20.1498H24.5285C25.0808 20.1498 25.5285 19.7021 25.5285 19.1498V14.3721C25.5285 13.8198 25.0808 13.3721 24.5285 13.3721H19.3618Z"/>
    <path fill-rule="evenodd" clip-rule="evenodd" d="M28.6211 14.8721V18.6498H32.7878V14.8721H28.6211ZM28.1211 13.3721C27.5688 13.3721 27.1211 13.8198 27.1211 14.3721V19.1498C27.1211 19.7021 27.5688 20.1498 28.1211 20.1498H33.2878C33.84 20.1498 34.2878 19.7021 34.2878 19.1498V14.3721C34.2878 13.8198 33.84 13.3721 33.2878 13.3721H28.1211Z"/>
  </symbol>

  <symbol id="layout-tile" viewBox="0 0 35 19">
    <path fill-rule="evenodd" clip-rule="evenodd" d="M8.5 6.8125L8.5 1.5L1.5 1.5L1.5 6.8125L8.5 6.8125ZM9 8.3125C9.55228 8.3125 10 7.86478 10 7.3125L10 1C10 0.447716 9.55229 9.23409e-07 9 8.86074e-07L1 3.45273e-07C0.447715 3.07938e-07 -6.44975e-08 0.447716 -1.26938e-07 1L-8.40616e-07 7.3125C-9.03057e-07 7.86478 0.447715 8.3125 0.999999 8.3125L9 8.3125Z"/>
    <path fill-rule="evenodd" clip-rule="evenodd" d="M14.5 17.5L14.5 12.1875L7.5 12.1875L7.5 17.5L14.5 17.5ZM15 19C15.5523 19 16 18.5523 16 18L16 11.6875C16 11.1352 15.5523 10.6875 15 10.6875L7 10.6875C6.44771 10.6875 6 11.1352 6 11.6875L6 18C6 18.5523 6.44771 19 7 19L15 19Z"/>
    <path fill-rule="evenodd" clip-rule="evenodd" d="M20.5 6.8125L20.5 1.5L13.5 1.5L13.5 6.8125L20.5 6.8125ZM21 8.3125C21.5523 8.3125 22 7.86478 22 7.3125L22 1C22 0.447716 21.5523 9.23409e-07 21 8.86074e-07L13 3.45273e-07C12.4477 3.07938e-07 12 0.447716 12 1L12 7.3125C12 7.86478 12.4477 8.3125 13 8.3125L21 8.3125Z"/>
    <path fill-rule="evenodd" clip-rule="evenodd" d="M26.5 17.5L26.5 12.1875L19.5 12.1875L19.5 17.5L26.5 17.5ZM27 19C27.5523 19 28 18.5523 28 18L28 11.6875C28 11.1352 27.5523 10.6875 27 10.6875L19 10.6875C18.4477 10.6875 18 11.1352 18 11.6875L18 18C18 18.5523 18.4477 19 19 19L27 19Z"/>
    <path fill-rule="evenodd" clip-rule="evenodd" d="M32.5 6.8125L32.5 1.5L25.5 1.5L25.5 6.8125L32.5 6.8125ZM33 8.3125C33.5523 8.3125 34 7.86478 34 7.3125L34 1C34 0.447716 33.5523 9.23409e-07 33 8.86074e-07L25 3.45273e-07C24.4477 3.07938e-07 24 0.447716 24 1L24 7.3125C24 7.86478 24.4477 8.3125 25 8.3125L33 8.3125Z"/>
  </symbol>

  <symbol id="circle-arrow-down" viewBox="0 0 24 24">
    <path fill-rule="evenodd" clip-rule="evenodd" d="M12 22C17.5228 22 22 17.5228 22 12C22 6.47715 17.5228 2 12 2C6.47715 2 2 6.47715 2 12C2 17.5228 6.47715 22 12 22ZM12 24C18.6274 24 24 18.6274 24 12C24 5.37258 18.6274 0 12 0C5.37258 0 0 5.37258 0 12C0 18.6274 5.37258 24 12 24Z"/>
    <path d="M12.0025 14.1559L7.51317 9.66675C7.38985 9.54314 7.22498 9.47514 7.04917 9.47514C6.87327 9.47514 6.70849 9.54314 6.58498 9.66675L6.1918 10.0601C6.0681 10.1835 6 10.3485 6 10.5243C6 10.7001 6.0681 10.8649 6.1918 10.9884L11.5368 16.3335C11.6607 16.4575 11.8262 16.5254 12.0022 16.5249C12.179 16.5254 12.3444 16.4576 12.4684 16.3335L17.8082 10.9934C17.9319 10.8699 18 10.7051 18 10.5292C18 10.3534 17.9319 10.1886 17.8082 10.065L17.415 9.67172C17.1591 9.41582 16.7425 9.41582 16.4867 9.67172L12.0025 14.1559Z"/>
  </symbol>

  <symbol id="finish-call" viewBox="0 0 24 24">
    <path d="M0.844101 10.1761C0.875373 10.1456 0.908951 10.1158 0.942513 10.0876C7.3554 4.72824 16.8785 4.84146 23.0948 10.3477C23.4434 10.6563 23.6505 11.0968 23.6635 11.5574C23.6766 12.0149 23.5037 12.4447 23.1785 12.7669L20.7451 15.1774C20.201 15.7085 19.374 15.8028 18.7321 15.408L16.235 13.8745C15.6698 13.527 15.3732 12.8791 15.4777 12.2229L15.7461 10.5287C13.3761 9.79943 10.7899 9.76208 8.37154 10.4205L8.59381 12.1716C8.67708 12.8277 8.36265 13.4675 7.78922 13.8029L5.24568 15.2934C4.59286 15.6773 3.76829 15.5677 3.24094 15.0274L0.791934 12.5187C0.472166 12.1911 0.309723 11.7588 0.333007 11.301C0.354338 10.8771 0.538426 10.4745 0.844101 10.1761Z"/>
  </symbol>

  <symbol id="mirror" viewBox="0 0 19 12">
    <path d="M15.3058 8.85777C15.3292 8.83345 15.351 8.80769 15.3711 8.78065C15.5971 8.4419 15.5466 7.98968 15.2514 7.70917L14.996 7.45496C14.9078 7.36748 14.8067 7.29405 14.6963 7.23725L14.3926 7.08021L18.1333 7.063C18.544 7.07809 18.9049 6.79279 18.9851 6.38969C19.0489 5.94755 18.7422 5.53739 18.3 5.47362C18.2583 5.4676 18.2162 5.46486 18.1741 5.46539L14.4011 5.48268L14.6394 5.37293C14.7668 5.31362 14.883 5.23262 14.9826 5.13353L15.249 4.866C15.5429 4.58414 15.5913 4.1317 15.3638 3.79398C15.0991 3.43416 14.5928 3.35706 14.2329 3.6218C14.2038 3.6432 14.1762 3.66652 14.1503 3.6916L12.1327 5.71838C11.8174 6.03482 11.8183 6.54696 12.1347 6.8623L14.1621 8.88048C14.4842 9.19002 14.9963 9.17985 15.3058 8.85777Z"/>
    <path d="M3.69359 3.70168C3.67016 3.72594 3.64829 3.75165 3.62807 3.77865C3.40131 4.11688 3.4508 4.56921 3.74536 4.8504L4.00015 5.10519C4.08814 5.19288 4.18907 5.26653 4.29943 5.32358L4.60276 5.48131L0.86202 5.48999C0.451342 5.47396 0.0897529 5.75843 0.00866388 6.16135C-0.0561467 6.60334 0.249656 7.0142 0.691652 7.07898C0.733334 7.0851 0.77542 7.08793 0.817532 7.0875L4.59062 7.07883L4.35201 7.18803C4.22446 7.24705 4.10813 7.32778 4.00824 7.42664L3.74131 7.69357C3.44676 7.97475 3.39727 8.42708 3.62403 8.76532C3.88794 9.12574 4.39407 9.204 4.75452 8.94008C4.78364 8.91875 4.81132 8.8955 4.83733 8.87047L6.8595 6.8483C7.17556 6.53259 7.17584 6.02045 6.86013 5.70438L4.83733 3.68158C4.51593 3.3713 4.00387 3.3803 3.69359 3.70168Z"/>
    <path d="M8.54529 1.55568C8.54529 1.0313 8.97039 0.606201 9.49477 0.606201C10.0192 0.606201 10.4442 1.0313 10.4442 1.55568V11.0505C10.4442 11.5749 10.0192 12 9.49477 12C8.97039 12 8.54529 11.5749 8.54529 11.0505V1.55568Z"/>
  </symbol>

  <symbol id="share" viewBox="0 0 24 24">
    <path d="M19.5797 3.88027H4.4204C3.63719 3.88027 3.00002 4.51744 3.00002 5.30064V15.3182C3.00002 16.1014 3.63719 16.7386 4.4204 16.7386H19.5797C20.3628 16.7386 21 16.1014 21 15.3182V5.30064C21 4.51744 20.3629 3.88027 19.5797 3.88027ZM20.1855 15.3182C20.1855 15.6523 19.9138 15.9241 19.5797 15.9241H4.4204C4.0863 15.9241 3.8145 15.6523 3.8145 15.3182V5.30064C3.8145 4.96654 4.0863 4.69475 4.4204 4.69475H19.5797C19.9138 4.69475 20.1855 4.96654 20.1855 5.30064V15.3182Z"/>
    <path fill-rule="evenodd" clip-rule="evenodd" d="M2.65002 5.30064C2.65002 4.32414 3.44389 3.53027 4.4204 3.53027H19.5797C20.5562 3.53027 21.35 4.32414 21.35 5.30064V15.3182C21.35 16.2947 20.5561 17.0886 19.5797 17.0886H4.4204C3.44389 17.0886 2.65002 16.2947 2.65002 15.3182V5.30064ZM4.4204 4.23027C3.83049 4.23027 3.35002 4.71074 3.35002 5.30064V15.3182C3.35002 15.9081 3.83049 16.3886 4.4204 16.3886H19.5797C20.1695 16.3886 20.65 15.9081 20.65 15.3182V5.30064C20.65 4.71074 20.1696 4.23027 19.5797 4.23027H4.4204ZM4.4204 5.04475C4.2796 5.04475 4.1645 5.15984 4.1645 5.30064V15.3182C4.1645 15.459 4.2796 15.5741 4.4204 15.5741H19.5797C19.7205 15.5741 19.8355 15.459 19.8355 15.3182V5.30064C19.8355 5.15984 19.7205 5.04475 19.5797 5.04475H4.4204ZM3.4645 5.30064C3.4645 4.77325 3.893 4.34475 4.4204 4.34475H19.5797C20.1071 4.34475 20.5355 4.77325 20.5355 5.30064V15.3182C20.5355 15.8456 20.1071 16.2741 19.5797 16.2741H4.4204C3.893 16.2741 3.4645 15.8456 3.4645 15.3182V5.30064Z"/>
    <path d="M16.3901 19.3051H14.467V17.5531C14.467 17.3282 14.2846 17.1459 14.0597 17.1459C13.8348 17.1459 13.6525 17.3282 13.6525 17.5531V19.3051H10.3472V17.5531C10.3472 17.3282 10.1649 17.1459 9.94 17.1459C9.71512 17.1459 9.53276 17.3282 9.53276 17.5531V19.3051H7.60957C7.38469 19.3051 7.20233 19.4874 7.20233 19.7123C7.20233 19.9373 7.38469 20.1196 7.60957 20.1196H16.3901C16.615 20.1196 16.7973 19.9373 16.7973 19.7123C16.7973 19.4874 16.615 19.3051 16.3901 19.3051Z"/>
    <path fill-rule="evenodd" clip-rule="evenodd" d="M9.18276 17.5531C9.18276 17.1349 9.52184 16.7959 9.94 16.7959C10.3582 16.7959 10.6972 17.1349 10.6972 17.5531V18.9551H13.3025V17.5531C13.3025 17.1349 13.6416 16.7959 14.0597 16.7959C14.4779 16.7959 14.817 17.1349 14.817 17.5531V18.9551H16.3901C16.8083 18.9551 17.1473 19.2941 17.1473 19.7123C17.1473 20.1306 16.8083 20.4696 16.3901 20.4696H7.60957C7.19141 20.4696 6.85233 20.1306 6.85233 19.7123C6.85233 19.2941 7.19141 18.9551 7.60957 18.9551H9.18276V17.5531ZM9.94 17.4959C9.9084 17.4959 9.88276 17.5215 9.88276 17.5531V19.6551H7.60957C7.57797 19.6551 7.55233 19.6807 7.55233 19.7123C7.55233 19.7439 7.57797 19.7696 7.60957 19.7696H16.3901C16.4217 19.7696 16.4473 19.7439 16.4473 19.7123C16.4473 19.6807 16.4217 19.6551 16.3901 19.6551H14.117V17.5531C14.117 17.5215 14.0913 17.4959 14.0597 17.4959C14.0281 17.4959 14.0025 17.5215 14.0025 17.5531V19.6551H9.99724V17.5531C9.99724 17.5215 9.9716 17.4959 9.94 17.4959Z"/>
  </symbol>

  <symbol id="chat" viewBox="0 0 20 20">
    <path d="M20 19.2187C20 19.5284 19.8017 20 19.2189 20C18.8552 20 18.5677 19.6818 18.5595 19.6735C17.8867 19.0006 16.8718 18.8306 16.0341 19.2505C15.0418 19.7478 13.9554 20 12.8055 20C10.4854 20 8.36156 18.9459 6.9909 17.1076C6.73293 16.7617 6.8043 16.2722 7.1502 16.0143C7.49609 15.7564 7.98566 15.8277 8.24348 16.1736C9.31625 17.6124 10.9824 18.4375 12.8047 18.4375C13.7103 18.4375 14.5609 18.2411 15.3341 17.8536C16.3232 17.3579 17.4539 17.3381 18.4374 17.7466L18.4372 12.8368C18.4372 12.8343 18.4372 12.8318 18.4372 12.8293C18.4546 11.0167 17.5943 9.28813 16.1359 8.20543C15.7895 7.94824 15.7171 7.45891 15.9743 7.11246C16.2315 6.76602 16.7209 6.69371 17.0672 6.95086C18.9245 8.32961 20.0205 10.5309 19.9996 12.84L20 19.2187ZM7.19383 14.4531C6.04449 14.4531 4.95828 14.201 3.96586 13.7036C3.6591 13.5499 3.32859 13.4755 2.9998 13.4755C2.03426 13.4755 1.30836 14.2485 1.30836 14.2485C1.16148 14.3828 0.972539 14.4531 0.781094 14.4532C0.674609 14.4532 0.567383 14.4314 0.466133 14.3868C0.182852 14.2619 0 13.9815 0 13.6718L0.0003125 7.29352C-0.0172656 5.35734 0.727344 3.52949 2.09727 2.14637C3.46809 0.762266 5.28973 0 7.22656 0C9.1773 0 11.0017 0.757226 12.3635 2.13223C13.7296 3.51145 14.4715 5.34582 14.4528 7.29738C14.4343 9.21969 13.6699 11.0207 12.3004 12.3687C10.9346 13.7129 9.12367 14.4531 7.20094 14.4531C7.19852 14.4531 7.19617 14.4531 7.19383 14.4531ZM4.66594 12.3068C5.43902 12.6942 6.28984 12.8906 7.19457 12.8906C10.3032 12.8908 12.8607 10.3754 12.8904 7.28238C12.9051 5.75098 12.3238 4.31246 11.2534 3.23176C10.1872 2.15531 8.75715 1.5625 7.22656 1.5625C5.70996 1.5625 4.28258 2.16035 3.20738 3.2459C2.13227 4.33141 1.54816 5.76488 1.56273 7.28234C1.56277 7.28484 1.56254 12.1997 1.56254 12.1997C2.01973 12.0098 2.50887 11.9125 3.00059 11.9125C3.5668 11.9125 4.1366 12.0414 4.66594 12.3068ZM10.2734 6.28906C9.7341 6.28906 9.29688 6.72629 9.29688 7.26562C9.29688 7.80496 9.7341 8.24219 10.2734 8.24219C10.8128 8.24219 11.25 7.80496 11.25 7.26562C11.25 6.72629 10.8128 6.28906 10.2734 6.28906ZM7.1875 6.28906C6.64816 6.28906 6.21094 6.72629 6.21094 7.26562C6.21094 7.80496 6.64816 8.24219 7.1875 8.24219C7.72684 8.24219 8.16406 7.80496 8.16406 7.26562C8.16406 6.72629 7.72687 6.28906 7.1875 6.28906ZM4.10156 6.28906C3.56223 6.28906 3.125 6.72629 3.125 7.26562C3.125 7.80496 3.56223 8.24219 4.10156 8.24219C4.6409 8.24219 5.07812 7.80496 5.07812 7.26562C5.07812 6.72629 4.64094 6.28906 4.10156 6.28906Z"/>
  </symbol>

  <symbol id="add-user" viewBox="0 0 24 24">
    <path d="M10.5 3C8.01824 3 5.99999 4.90612 5.99999 7.25V8.66668C5.99999 9.54361 6.28275 10.3589 6.7665 11.0367C4.51949 12.2607 3 14.5458 3 17.1667V17.875C3 19.0466 4.00951 20 5.25 20H12C12.4147 20 12.75 19.6827 12.75 19.2917C12.75 18.9007 12.4147 18.5834 12 18.5834H5.25C4.836 18.5834 4.50001 18.2653 4.50001 17.875V17.1667C4.50001 14.9433 5.86351 13.0159 7.842 12.0887C8.58826 12.6065 9.50549 12.9167 10.5 12.9167C12.9817 12.9167 15 11.0106 15 8.66671V7.25C15 4.90612 12.9817 3 10.5 3ZM13.5 8.66668C13.5 10.2293 12.1545 11.5 10.5 11.5C8.84554 11.5 7.5 10.2293 7.5 8.66668V7.25C7.5 5.68743 8.8455 4.41668 10.5 4.41668C12.1545 4.41668 13.5 5.68743 13.5 7.25V8.66668H13.5Z"/>
    <path d="M20.25 15.0417H17.25V12.2084C17.25 11.8174 16.9148 11.5001 16.5 11.5001C16.0853 11.5001 15.75 11.8174 15.75 12.2084V15.0417H12.7501C12.3352 15.0417 12 15.359 12 15.75C12 16.141 12.3353 16.4584 12.75 16.4584H15.75V19.2917C15.75 19.6827 16.0852 20 16.5 20C16.9147 20 17.25 19.6827 17.25 19.2917V16.4584H20.2499C20.6647 16.4584 20.9999 16.141 20.9999 15.75C20.9999 15.359 20.6647 15.0417 20.25 15.0417Z"/>
  </symbol>

  <symbol id="hand" viewBox="0 0 19 19">
    <path d="M8.36512 19H15.0448C15.3523 19 15.6014 18.7508 15.6014 18.4434V17.0494C15.6014 16.3667 15.7713 15.6873 16.0926 15.0848C16.4996 14.3218 16.7147 13.4613 16.7147 12.5965V3.89648C16.7147 2.97571 15.9656 2.22656 15.0448 2.22656C14.8275 2.22656 14.6199 2.26875 14.4293 2.34456C14.2362 1.636 13.5873 1.11328 12.8182 1.11328C12.601 1.11328 12.3934 1.15546 12.2028 1.23128C12.0097 0.52272 11.3607 0 10.5917 0C9.82268 0 9.17385 0.52272 8.98062 1.23128C8.79 1.15546 8.58256 1.11328 8.36512 1.11328C7.44435 1.11328 6.6952 1.86243 6.6952 2.7832V8.8084L6.43645 8.5498C5.35143 7.46464 3.58584 7.46464 2.50083 8.5498C2.29745 8.75303 2.28252 9.07788 2.46618 9.29909L7.42289 15.2644C7.6715 15.5636 7.80848 15.9427 7.80848 16.3317V18.4434C7.80848 18.7508 8.05766 19 8.36512 19ZM3.69572 9.03671C4.30962 8.71534 5.10892 8.79652 5.64932 9.33692L6.76261 10.4502C6.86698 10.5546 7.0086 10.6133 7.15617 10.6133H8.36512C9.8998 10.6133 11.1483 11.8618 11.1483 13.3965C11.1483 13.7039 11.3975 13.9531 11.705 13.9531C12.0124 13.9531 12.2616 13.7039 12.2616 13.3965C12.2616 11.2479 10.5137 9.5 8.36512 9.5H7.80848V2.7832C7.80848 2.47633 8.05824 2.22656 8.36512 2.22656C8.672 2.22656 8.92176 2.47633 8.92176 2.7832V7.27344C8.92176 7.58089 9.17095 7.83008 9.4784 7.83008C9.78586 7.83008 10.035 7.58089 10.035 7.27344V1.66992C10.035 1.36304 10.2848 1.11328 10.5917 1.11328C10.8986 1.11328 11.1483 1.36304 11.1483 1.66992V7.27344C11.1483 7.58089 11.3975 7.83008 11.705 7.83008C12.0124 7.83008 12.2616 7.58089 12.2616 7.27344V2.7832C12.2616 2.47633 12.5114 2.22656 12.8182 2.22656C13.1251 2.22656 13.3749 2.47633 13.3749 2.7832V7.27344C13.3749 7.58089 13.6241 7.83008 13.9315 7.83008C14.239 7.83008 14.4882 7.58089 14.4882 7.27344V3.89648C14.4882 3.58961 14.7379 3.33984 15.0448 3.33984C15.3517 3.33984 15.6014 3.58961 15.6014 3.89648V12.5965C15.6014 13.2792 15.4316 13.9585 15.1103 14.5609C14.7033 15.324 14.4882 16.1845 14.4882 17.0494V17.8867H8.92176V16.3317C8.92176 15.6833 8.6936 15.0516 8.27931 14.553L3.69572 9.03671Z"/>
  </symbol>

  <symbol id="copy" viewBox="0 0 24 24">
    <path d="M14.4316 21.0002H7.78422C6.24896 21.0002 5 19.7386 5 18.1877V8.6604C5 7.10954 6.24896 5.8479 7.78422 5.8479H14.4316C15.9668 5.8479 17.2158 7.10954 17.2158 8.6604V18.1877C17.2158 19.7386 15.9668 21.0002 14.4316 21.0002ZM7.78422 7.25415C7.01666 7.25415 6.39211 7.88504 6.39211 8.6604V18.1877C6.39211 18.9631 7.01666 19.594 7.78422 19.594H14.4316C15.1991 19.594 15.8237 18.9631 15.8237 18.1877V8.6604C15.8237 7.88504 15.1991 7.25415 14.4316 7.25415H7.78422ZM20 16.4299V5.81274C20 4.26189 18.751 3.00024 17.2158 3.00024H9.48956C9.1051 3.00024 8.7935 3.315 8.7935 3.70337C8.7935 4.09174 9.1051 4.40649 9.48956 4.40649H17.2158C17.9833 4.40649 18.6079 5.03738 18.6079 5.81274V16.4299C18.6079 16.8183 18.9195 17.1331 19.3039 17.1331C19.6884 17.1331 20 16.8183 20 16.4299Z"/>
  </symbol>

  <symbol id="check" viewBox="0 0 17 17">
    <path d="M5.94479 14.4584C5.73122 14.4584 5.51764 14.3766 5.35494 14.2139L0.24474 9.10359C-0.0815799 8.77742 -0.0815799 8.25006 0.24474 7.92389C0.570907 7.59772 1.09812 7.59772 1.42444 7.92389L5.94479 12.4442L15.5757 2.81353C15.9018 2.48737 16.429 2.48737 16.7554 2.81353C17.0815 3.13985 17.0815 3.66707 16.7554 3.99339L6.53479 14.2139C6.37209 14.3766 6.15837 14.4584 5.94479 14.4584Z"/>
  </symbol>

  <symbol id="close" viewBox="0 0 33 33">
    <path d="M20.1459 16.5L24.3203 12.3259C25.3253 11.3208 25.3253 9.68508 24.3203 8.68001C23.315 7.6747 21.6795 7.6747 20.6742 8.68001L16.5001 12.8541L12.326 8.68001C11.3206 7.6747 9.68514 7.6747 8.67982 8.68001C7.67476 9.68508 7.67476 11.3208 8.67982 12.3259L12.8542 16.5L8.67982 20.6741C7.67476 21.6794 7.67476 23.3149 8.67982 24.3202C9.16675 24.8071 9.8143 25.0753 10.5029 25.0753C11.1915 25.0753 11.839 24.8071 12.326 24.3202L16.5001 20.1461L20.6742 24.3202C21.1611 24.8071 21.8086 25.0753 22.4972 25.0753C23.1858 25.0753 23.8334 24.8071 24.3203 24.3202C25.3253 23.3149 25.3253 21.6792 24.3203 20.6741L20.1459 16.5ZM22.9529 22.9529C22.8313 23.0747 22.6694 23.1417 22.4972 23.1417C22.325 23.1417 22.1631 23.0747 22.0415 22.9529L17.1836 18.0952C16.995 17.9064 16.7475 17.812 16.5001 17.812C16.2528 17.812 16.0053 17.9064 15.8165 18.0952L10.9588 22.9529C10.837 23.0747 10.6751 23.1417 10.5029 23.1417C10.3309 23.1417 10.169 23.0747 10.0474 22.9529C9.79592 22.7016 9.79592 22.2927 10.0472 22.0415L14.9051 17.1835C15.0864 17.0023 15.1883 16.7565 15.1883 16.5C15.1883 16.2437 15.0864 15.9977 14.9051 15.8164L10.0472 10.9588C9.79592 10.7075 9.79592 10.2984 10.0472 10.0471C10.2985 9.79586 10.7076 9.79586 10.9588 10.0471L15.8165 14.905C16.1942 15.2824 16.8062 15.2824 17.1839 14.905L22.0415 10.0471C22.2928 9.79586 22.7019 9.79586 22.9532 10.0471C23.2044 10.2984 23.2044 10.7073 22.9532 10.9588L18.0955 15.8164C17.914 15.9977 17.8123 16.2437 17.8123 16.5C17.8123 16.7565 17.914 17.0025 18.0955 17.1835L22.9532 22.0415C23.2042 22.2927 23.2042 22.7016 22.9529 22.9529Z"/>
  </symbol>

  <symbol id="theme" viewBox="0 0 24 24">
    <path d="M12.6489 18.5602C12.1866 18.6847 11.7243 18.7477 11.2749 18.7477C8.36252 18.7477 5.99305 16.3783 5.99305 13.4659C5.99305 12.6033 6.1972 11.7778 6.5999 11.0124C6.71918 10.7857 6.69284 10.5098 6.53279 10.3097C6.37273 10.1096 6.10937 10.0233 5.86196 10.09C2.99929 10.8604 1 13.4671 1 16.4291C1 20.0523 3.94774 23 7.57095 23C10.017 23 12.2456 21.6523 13.3869 19.4827C13.5061 19.2559 13.4798 18.9801 13.3197 18.78C13.1596 18.5799 12.8964 18.4936 12.6489 18.5602ZM7.57095 21.711C4.65853 21.711 2.28906 19.3415 2.28906 16.4291C2.28906 14.5276 3.31468 12.8081 4.90036 11.8777C4.77068 12.3965 4.70399 12.9309 4.70399 13.4659C4.70399 17.0891 7.65173 20.0368 11.2749 20.0368C11.3261 20.0368 11.3775 20.0362 11.4289 20.0349C10.4441 21.0914 9.05754 21.711 7.57095 21.711Z"/>
    <path d="M14.6682 13.7064L16.3398 13.1972L18.0114 13.7064C18.0734 13.7253 18.1366 13.7344 18.1991 13.7344C18.3977 13.7344 18.5895 13.6424 18.7135 13.4783L19.7666 12.0842L21.4175 11.5127C21.6727 11.4244 21.8457 11.1864 21.8511 10.9164L21.8856 9.16936L22.8843 7.73562C23.0385 7.51424 23.0385 7.22021 22.8843 6.99883L21.8856 5.56518L21.8511 3.8182C21.8458 3.54823 21.6728 3.31018 21.4176 3.22188L19.7666 2.65031L18.7136 1.2561C18.5506 1.04031 18.2702 0.949176 18.0115 1.02802L16.3398 1.5372L14.6683 1.02802C14.4095 0.949219 14.1292 1.04031 13.9662 1.2561L12.9131 2.65022L11.2621 3.22175C11.007 3.31009 10.8339 3.5481 10.8286 3.81807L10.794 5.56509L9.79535 6.99883C9.64113 7.22021 9.64113 7.51424 9.79535 7.73562L10.794 9.16923L10.8285 10.9163C10.8339 11.1862 11.0069 11.4243 11.2621 11.5126L12.913 12.0841L13.9661 13.4783C14.1291 13.6941 14.4095 13.7852 14.6682 13.7064ZM13.8234 11.1508C13.7464 11.0488 13.6408 10.972 13.52 10.9302L12.1084 10.4415L12.079 8.94845C12.0764 8.82109 12.0363 8.6973 11.9634 8.59276L11.1097 7.3672L11.9635 6.14156C12.0363 6.03702 12.0765 5.91327 12.079 5.78591L12.1085 4.29283L13.5201 3.80419C13.6408 3.76238 13.7465 3.6856 13.8235 3.58359L14.7234 2.39228L16.1521 2.82747C16.2745 2.86477 16.4053 2.86477 16.5277 2.82747L17.9564 2.39228L18.8563 3.58363C18.9333 3.68564 19.039 3.76243 19.1597 3.80423L20.5713 4.29292L20.6007 5.78595C20.6033 5.91331 20.6435 6.03711 20.7163 6.14165L21.57 7.3672L20.7163 8.59284C20.6435 8.69739 20.6033 8.82114 20.6007 8.9485L20.5712 10.4415L19.1597 10.9302C19.0389 10.972 18.9333 11.0488 18.8563 11.1508L17.9564 12.3421L16.5277 11.9069C16.4665 11.8882 16.4032 11.8789 16.3399 11.8789C16.2766 11.8789 16.2133 11.8882 16.1521 11.9069L14.7233 12.342L13.8234 11.1508Z"/>
    <path d="M19.7773 7.36725C19.7773 5.47181 18.2353 3.92975 16.3398 3.92975C14.4444 3.92975 12.9023 5.47181 12.9023 7.36725C12.9023 9.26269 14.4444 10.8047 16.3398 10.8047C18.2353 10.8047 19.7773 9.26269 19.7773 7.36725ZM14.1914 7.36725C14.1914 6.1826 15.1552 5.21881 16.3398 5.21881C17.5245 5.21881 18.4883 6.1826 18.4883 7.36725C18.4883 8.5519 17.5245 9.51569 16.3398 9.51569C15.1552 9.51569 14.1914 8.5519 14.1914 7.36725Z"/>
    <path d="M21.0924 14.9818C20.8408 14.7301 20.4327 14.7301 20.1809 14.9818L18.4622 16.7006C18.2105 16.9523 18.2105 17.3603 18.4622 17.6121C18.7139 17.8638 19.122 17.8638 19.3737 17.6121L19.9276 17.0581C19.5648 19.1847 17.7089 20.8086 15.4805 20.8086H14.6211C14.2651 20.8086 13.9766 21.0972 13.9766 21.4532C13.9766 21.8091 14.2651 22.0977 14.6211 22.0977H15.4805C18.4562 22.0977 20.9153 19.8453 21.2436 16.9559L21.8997 17.6121C22.0256 17.7379 22.1905 17.8008 22.3555 17.8008C22.5204 17.8008 22.6854 17.7379 22.8112 17.612C23.0629 17.3603 23.0629 16.9522 22.8112 16.7005L21.0924 14.9818Z"/>
    <path d="M2.90758 9.01823C3.03339 9.14412 3.19835 9.20703 3.3633 9.20703C3.52826 9.20703 3.69322 9.14412 3.81903 9.01823L5.53778 7.29948C5.78949 7.04777 5.78949 6.63969 5.53778 6.38798C5.28611 6.13627 4.87799 6.13627 4.62628 6.38798L4.07237 6.94189C4.43524 4.81537 6.29115 3.19141 8.51955 3.19141H9.37893C9.73488 3.19141 10.0235 2.90283 10.0235 2.54687C10.0235 2.19092 9.73488 1.90234 9.37893 1.90234H8.51955C5.5438 1.90234 3.08469 4.15477 2.75641 7.04411L2.10028 6.38798C1.84861 6.13627 1.44049 6.13627 1.18878 6.38798C0.937072 6.63969 0.937072 7.04777 1.18878 7.29948L2.90758 9.01823Z"/>
  </symbol>
</svg>
